<svg id="color--chatreuse" xmlns="http://www.w3.org/2000/svg" width="186.076" height="29.429" viewBox="0 0 186.076 29.429">
  <g id="Gruppe_2208" data-name="Gruppe 2208" transform="translate(0 0)">
    <g id="Gruppe_2205" data-name="Gruppe 2205">
      <path id="Pfad_219" data-name="Pfad 219" d="M25.576,5.172a9.306,9.306,0,0,0-4.391-1.8,9.329,9.329,0,0,0-1.293-.14c-.419-.019-.791-.028-1.107-.028H0V32H5.387V23.4h13.4c.3,0,.67-.019,1.107-.047s.865-.074,1.284-.13a9.53,9.53,0,0,0,4.41-1.8,8.57,8.57,0,0,0,2.661-3.508,11.972,11.972,0,0,0,.875-4.624,11.775,11.775,0,0,0-.875-4.605A8.591,8.591,0,0,0,25.576,5.172Zm-1.926,8.1a6.8,6.8,0,0,1-.326,2.038,4.509,4.509,0,0,1-1.042,1.74,3.746,3.746,0,0,1-1.879,1,5.29,5.29,0,0,1-.893.13c-.335.028-.623.037-.884.037H5.387V8.317h13.23c.261,0,.558.009.884.037a4.857,4.857,0,0,1,.893.158,3.746,3.746,0,0,1,1.879,1,4.365,4.365,0,0,1,1.042,1.731A6.478,6.478,0,0,1,23.65,13.276Z" transform="translate(0 -2.901)" fill="#d4fa1f"/>
      <path id="Pfad_220" data-name="Pfad 220" d="M397.389,18.518H381.21V5.4H375.6V33.981h5.61V23.719h16.179V33.981h5.629V5.4h-5.629Z" transform="translate(-340.655 -4.897)" fill="#d4fa1f"/>
      <path id="Pfad_221" data-name="Pfad 221" d="M753.195,4.9,742.886,21.135,732.606,4.9H726.4l13.816,22.208v6.42h5.341v-6.42L759.373,4.9Z" transform="translate(-658.817 -4.443)" fill="#d4fa1f"/>
      <path id="Pfad_222" data-name="Pfad 222" d="M1466.3,33.8V5.2h5.638V33.809H1466.3Z" transform="translate(-1329.878 -4.715)" fill="#d4fa1f"/>
      <path id="Pfad_223" data-name="Pfad 223" d="M1628.676,8.887V3.1h-23.529a14.56,14.56,0,1,0,13.7,19.51c.558-1.591,1.665-3.349,4.038-3.349V31.9h5.787V13.827h-5.805c-11.314.3-6.792,12.337-18,12.607-4.689.112-8.476-4.047-8.494-8.736a8.771,8.771,0,0,1,8.773-8.8h23.529Z" transform="translate(-1442.6 -2.811)" fill="#d4fa1f"/>
      <path id="Pfad_224" data-name="Pfad 224" d="M1104.785,28.3a19.624,19.624,0,0,0,6.773,1.116,22.884,22.884,0,0,0,5.015-.549,15.509,15.509,0,0,0,4.345-1.656,8.908,8.908,0,0,0,3.024-2.782,6.887,6.887,0,0,0,1.116-3.917,6.077,6.077,0,0,0-.921-3.47,7.3,7.3,0,0,0-2.372-2.214,13.87,13.87,0,0,0-3.052-1.33c-1.061-.326-2.047-.586-2.931-.782l-5.936-1.358a18.514,18.514,0,0,1-2.159-.6,5.57,5.57,0,0,1-1.8-.986,2.135,2.135,0,0,1-.763-1.684,2.878,2.878,0,0,1,.875-2.056,4.448,4.448,0,0,1,2.121-1.209,10.92,10.92,0,0,1,3.108-.344,14.348,14.348,0,0,1,3.629.688,7.167,7.167,0,0,1,2.512,1.5,6.023,6.023,0,0,1,1.517,2.828l5.88-.074a8.3,8.3,0,0,0-2.642-5.61,12.161,12.161,0,0,0-4.568-2.791,18.941,18.941,0,0,0-6.234-1.023,20.06,20.06,0,0,0-6.336.9,10.211,10.211,0,0,0-4.531,2.791,6.7,6.7,0,0,0-1.675,4.661,6.177,6.177,0,0,0,.791,3.284,6.51,6.51,0,0,0,1.991,2.093,10.4,10.4,0,0,0,2.5,1.228c.865.288,1.637.512,2.3.67l8.876,2.2a8.83,8.83,0,0,1,1.693.6,4.025,4.025,0,0,1,1.07.716,2.307,2.307,0,0,1,.559.847,2.6,2.6,0,0,1,.167.921,2.769,2.769,0,0,1-1.042,2.177,6.731,6.731,0,0,1-2.54,1.284,11.82,11.82,0,0,1-3.145.428,10.787,10.787,0,0,1-5.182-1.358c-.251-.13-2.484-1.349-3.005-2.94H1097.5a9.515,9.515,0,0,0,2.372,4.652A12.566,12.566,0,0,0,1104.785,28.3Z" transform="translate(-995.391 0.009)" fill="#d4fa1f"/>
    </g>
  </g>
</svg>
