<?xml version="1.0" encoding="UTF-8"?> <svg xmlns="http://www.w3.org/2000/svg" width="294" height="86" viewBox="0 0 294 86" fill="none"><path d="M278.988 47.2463H281.135C284.259 47.2463 286.406 49.2963 286.406 52.1271C286.406 54.6652 285.04 57.1056 281.526 57.1056H278.988V47.2463ZM278.988 58.0817H280.647C284.454 58.0817 285.528 63.1578 289.335 68.0386H293.532V67.3553C290.116 67.0624 288.847 59.9364 284.942 57.3984C287.968 56.4222 289.237 54.4699 289.237 52.0295C289.237 49.1986 286.992 46.3678 282.306 46.3678H273.814V47.0511C275.473 47.0511 276.157 47.5392 276.157 50.37V63.9387C276.157 66.8672 275.376 67.3553 273.814 67.3553V68.0386H281.233V67.3553C279.573 67.3553 278.89 66.5743 278.89 63.9387V58.0817H278.988ZM270.3 54.6652H269.714C269.421 56.5199 268.933 56.8127 267.469 56.8127H261.709V47.5392H267.664C269.909 47.5392 270.69 47.7344 271.081 50.0772H271.471V46.4654H256.536V47.1487C258.293 47.1487 258.879 47.9296 258.879 50.5653V64.0363C258.879 66.8672 258.195 67.4529 256.536 67.4529V68.1362H271.471L272.447 64.1339H271.862C270.593 66.9648 269.909 67.16 266.883 67.16H263.271C262.1 67.16 261.709 66.7696 261.709 65.6958V57.9841H266.785C268.933 57.9841 269.226 58.1793 269.714 60.0341H270.3V54.6652ZM250.093 57.6913V63.9387C250.093 66.7696 249.41 67.3553 247.75 67.3553V68.0386H255.169V67.3553C253.412 67.3553 252.826 66.4767 252.826 63.9387V50.4677C252.826 47.9296 253.412 47.0511 255.169 47.0511V46.3678H247.848V47.0511C249.605 47.0511 250.191 47.832 250.191 50.4677V56.6175H238.965V50.4677C238.965 47.7344 239.746 47.0511 241.308 47.0511V46.3678H233.889V47.0511C235.743 47.0511 236.232 47.9296 236.232 50.4677V63.9387C236.232 66.7696 235.451 67.3553 233.889 67.3553V68.0386H241.308V67.3553C239.551 67.3553 238.965 66.5743 238.965 63.9387V57.6913H250.093ZM231.839 52.6152V46.1725H231.253C231.058 46.6606 230.667 46.8558 230.179 46.8558C228.91 46.8558 227.056 45.9773 224.42 45.9773C218.27 45.9773 213.78 51.0533 213.78 57.8865C213.78 65.1101 218.953 68.6243 223.932 68.6243C227.934 68.6243 231.156 66.4767 232.522 63.0602L231.936 62.5721C230.375 65.6958 227.934 67.3553 224.713 67.3553C220.027 67.3553 216.904 63.0602 216.904 56.6175C216.904 51.0533 219.539 46.8558 224.518 46.8558C228.129 46.8558 230.179 48.6129 231.253 52.7128H231.839V52.6152ZM205.678 57.9841H199.918L202.847 48.8082H202.944L205.678 57.9841ZM208.02 65.3053C208.509 66.7696 207.825 67.4529 206.361 67.4529V68.1362H213.682V67.4529C211.827 67.4529 211.339 66.8672 210.754 64.8173L204.799 46.1725H202.652L196.99 64.0363C196.306 65.9886 195.916 67.16 193.964 67.4529V68.1362H199.333V67.4529C197.185 67.4529 197.576 65.7934 198.259 63.6459L199.625 59.3507H206.263L208.02 65.3053ZM192.207 50.4677C192.207 47.9296 192.89 47.0511 194.842 47.0511V46.3678H188.595V47.0511C190.352 47.0511 191.133 47.7344 191.133 50.5653V63.2554H191.035L178.15 46.4654H172.879V47.1487C175.319 47.3439 175.905 48.7106 175.905 51.151V63.8411C175.905 66.9648 175.124 67.5505 173.367 67.5505V68.2338H179.614V67.5505C177.759 67.5505 176.881 66.7696 176.881 64.5244V49.3939H176.978L191.523 68.2338H192.109V50.4677H192.207ZM153.746 57.2032C153.746 50.9557 156.869 46.7582 161.75 46.7582C166.045 46.7582 169.462 50.5653 169.462 57.3984C169.462 62.6697 166.729 67.8434 161.555 67.8434C156.869 67.7457 153.746 63.5482 153.746 57.2032ZM150.622 57.2032C150.622 63.6459 155.405 68.6243 161.653 68.6243C167.9 68.6243 172.683 63.6459 172.683 57.2032C172.683 50.7605 167.9 45.9773 161.75 45.9773C155.405 45.8797 150.622 50.7605 150.622 57.2032ZM137.053 47.2463H139.201C142.325 47.2463 144.472 49.2963 144.472 52.1271C144.472 54.6652 143.106 57.1056 139.591 57.1056H137.053V47.2463ZM137.053 58.0817H138.713C142.52 58.0817 143.594 63.1578 147.401 68.0386H151.598V67.3553C148.182 67.0624 146.913 59.9364 143.008 57.3984C146.034 56.4222 147.303 54.4699 147.303 52.0295C147.303 49.1986 145.058 46.3678 140.372 46.3678H131.88V47.0511C133.539 47.0511 134.222 47.5392 134.222 50.37V63.9387C134.222 66.8672 133.442 67.3553 131.88 67.3553V68.0386H139.299V67.3553C137.639 67.3553 136.956 66.5743 136.956 63.9387V58.0817H137.053ZM124.07 46.1725H123.485C123.387 46.6606 123.289 46.7582 122.899 46.7582C122.118 46.7582 121.044 45.9773 118.897 45.9773C115.578 45.9773 113.235 48.2225 113.235 51.5414C113.235 53.2009 113.723 54.7628 114.992 56.0318C117.335 58.4722 122.899 60.2293 122.899 63.9387C122.899 66.2815 121.24 67.7457 118.799 67.7457C117.042 67.7457 113.821 66.3791 113.821 62.3768H113.235V68.2338H113.821C114.016 67.6481 114.211 67.3553 114.602 67.3553C115.285 67.3553 117.14 68.5267 119.287 68.5267C122.509 68.5267 125.144 65.7934 125.144 62.3768C125.144 60.9126 124.754 59.546 123.387 58.0817C120.459 54.958 115.187 53.8842 115.187 49.882C115.187 47.9296 116.749 46.6606 118.897 46.6606C121.044 46.6606 123.192 47.9296 123.485 51.151H124.07V46.1725ZM103.571 57.9841H97.8116L100.74 48.8082H100.838L103.571 57.9841ZM105.914 65.3053C106.402 66.7696 105.719 67.4529 104.254 67.4529V68.1362H111.575V67.4529C109.721 67.4529 109.233 66.8672 108.647 64.8173L102.692 46.1725H100.447L94.7855 64.0363C94.1022 65.9886 93.7117 67.16 91.7594 67.4529V68.1362H97.1283V67.4529C94.9807 67.4529 95.3712 65.7934 96.0545 63.6459L97.4211 59.3507H104.059L105.914 65.3053ZM75.7503 47.2463H79.6549C86.1952 47.2463 88.6357 52.42 88.6357 57.5936C88.6357 63.4506 85.6095 67.16 80.4359 67.16H78.2883C76.336 67.16 75.6527 66.4767 75.6527 63.1578V47.2463H75.7503ZM73.017 64.0363C73.017 66.672 72.3337 67.4529 70.6742 67.4529V68.1362H80.4359C88.538 68.1362 91.857 63.1578 91.857 57.6913C91.857 52.2247 88.1476 46.563 80.2406 46.563H70.6742V47.2463C72.4313 47.2463 73.017 48.1249 73.017 50.6629V64.0363ZM37.8751 54.8604C18.9376 54.8604 3.6118 43.7321 3.6118 29.9682C3.6118 16.2043 19.0352 5.07605 37.8751 5.07605C56.7151 5.07605 72.1385 16.2043 72.1385 29.9682C72.1385 43.7321 56.8127 54.8604 37.8751 54.8604ZM37.8751 5.75936C19.328 5.75936 4.29512 16.5948 4.29512 29.9682C4.29512 43.3417 19.4257 54.1771 37.8751 54.1771C56.3246 54.1771 71.4552 43.3417 71.4552 29.9682C71.4552 16.5948 56.4222 5.75936 37.8751 5.75936ZM32.9943 48.0272C14.7401 48.0272 0 37.2894 0 24.0136C0 10.7378 14.8377 0 32.9943 0C51.151 0 65.9887 10.7378 65.9887 24.0136C65.9887 37.2894 51.2486 48.0272 32.9943 48.0272ZM32.9943 0.780931C15.1305 0.780931 0.683314 11.2259 0.683314 24.1112C0.683314 36.9966 15.2281 47.4415 32.9943 47.4415C50.7605 47.4415 65.3053 36.9966 65.3053 24.1112C65.403 11.2259 50.8581 0.780931 32.9943 0.780931ZM62.084 57.3008C51.3462 57.3008 41.1941 53.8842 34.1657 47.9296L34.6538 47.4415C41.5846 53.2985 51.5414 56.6175 62.1816 56.6175C66.3791 56.6175 70.479 56.1294 74.3837 55.0556L74.5789 55.7389C70.479 56.7151 66.3791 57.3008 62.084 57.3008ZM87.3666 49.9796L86.9762 49.3939C94.2974 44.4154 98.2997 37.6799 98.2997 30.3587C98.2997 15.9115 82.0954 4.1975 62.1816 4.1975C56.9103 4.1975 51.8343 4.97843 47.1487 6.5403L46.9535 5.85698C51.7367 4.29512 56.9103 3.41657 62.1816 3.41657C82.4858 3.41657 99.0806 15.521 99.0806 30.2611C98.8854 37.8751 94.7855 44.8059 87.3666 49.9796ZM29.6754 25.9659H33.1896C38.0704 25.9659 40.0227 22.647 40.0227 19.328C40.0227 15.521 37.1918 12.7877 32.7015 12.7877H29.6754V25.9659ZM29.6754 35.1419C29.6754 38.6561 30.5539 39.7299 32.9943 39.7299V40.6084H22.647V39.7299C24.8922 39.7299 25.966 39.0465 25.966 35.1419V17.0829C25.966 13.2758 24.9898 12.5925 22.647 12.5925V11.714H34.4586C40.9989 11.714 44.1226 15.4234 44.1226 19.328C44.1226 22.5494 42.3655 25.185 38.168 26.454C43.5369 29.9682 45.3916 39.437 50.1748 39.8275V40.706H44.3178C38.9489 34.1657 37.3871 27.3326 32.1158 27.3326H29.773V35.1419H29.6754ZM272.154 85.9024H275.766V85.2191H272.935V79.4597H272.154V85.9024ZM264.638 85.9024H268.445V85.2191H265.516V82.8763H267.957V82.193H265.419V80.143H268.25V79.4597H264.54V85.9024H264.638ZM258.293 85.9024H259.074V80.2406H261.026V79.5573H256.341V80.2406H258.293V85.9024ZM250.581 85.3167C249.41 85.3167 248.726 84.3405 248.726 82.681C248.726 81.1192 249.507 80.143 250.581 80.143C251.753 80.143 252.436 81.1192 252.436 82.681C252.534 84.2429 251.753 85.3167 250.581 85.3167ZM250.581 86C252.143 86 253.314 84.731 253.314 82.681C253.314 80.6311 252.143 79.3621 250.581 79.3621C248.922 79.3621 247.848 80.6311 247.848 82.681C247.848 84.731 249.019 86 250.581 86ZM239.453 85.9024H240.234V82.8763H243.162V85.9024H243.943V79.4597H243.162V82.0953H240.234V79.4597H239.453V85.9024ZM226.47 85.9024H227.348L227.934 83.9501H230.277L230.863 85.9024H231.741L229.594 79.4597H228.617L226.47 85.9024ZM228.422 82.2906C228.617 81.6073 228.813 80.8263 229.008 80.143C229.203 80.924 229.398 81.6073 229.691 82.2906L229.984 83.2667H228.032L228.422 82.2906ZM220.613 82.681V80.143H221.492C222.565 80.143 223.151 80.4359 223.151 81.412C223.151 82.2906 222.663 82.7787 221.492 82.7787H220.613V82.681ZM219.832 85.9024H220.613V83.3644H221.687C223.053 83.3644 224.03 82.7787 224.03 81.412C224.03 80.0454 223.053 79.5573 221.589 79.5573H219.734V85.9024H219.832ZM213.975 86C215.342 86 216.123 85.2191 216.123 84.1453C216.123 83.1691 215.537 82.7787 214.854 82.3882L213.975 81.9977C213.487 81.8025 212.901 81.5097 212.901 80.924C212.901 80.3383 213.389 79.9478 214.073 79.9478C214.658 79.9478 215.146 80.143 215.537 80.5335L216.025 79.9478C215.537 79.4597 214.951 79.1669 214.17 79.1669C212.999 79.1669 212.12 79.8502 212.12 80.8263C212.12 81.8025 212.804 82.193 213.389 82.4858L214.366 82.8763C214.951 83.1691 215.439 83.3644 215.439 83.9501C215.439 84.5358 214.951 85.0238 214.073 85.0238C213.389 85.0238 212.706 84.731 212.316 84.2429L211.827 84.731C212.218 85.6095 212.999 86 213.975 86ZM200.602 85.9024H204.213V85.2191H201.383V79.4597H200.602V85.9024ZM192.011 85.9024H192.792L193.378 83.9501H195.721L196.306 85.9024H197.185L195.037 79.4597H194.061L192.011 85.9024ZM193.964 82.2906C194.159 81.6073 194.354 80.8263 194.549 80.143C194.745 80.924 194.94 81.6073 195.233 82.2906L195.526 83.2667H193.573L193.964 82.2906ZM183.324 85.9024H184.104V82.3882C184.104 81.8025 184.007 81.0216 184.007 80.4359L184.495 81.9001L185.666 85.2191H186.252L187.423 81.9001L187.911 80.4359C187.911 81.0216 187.814 81.8025 187.814 82.3882V85.9024H188.595V79.4597H187.619L186.447 82.8763C186.252 83.3644 186.154 83.7548 186.057 84.2429C185.959 83.7548 185.764 83.3644 185.666 82.8763L184.495 79.4597H183.519V85.9024H183.324ZM176.1 82.4858V80.143H177.174C178.15 80.143 178.736 80.4359 178.736 81.3144C178.736 82.0954 178.15 82.5834 177.174 82.5834H176.1V82.4858ZM175.319 85.9024H176.1V83.1691H177.271L178.833 85.9024H179.712L178.052 83.0715C178.931 82.8763 179.516 82.2906 179.516 81.3144C179.516 79.9478 178.54 79.4597 177.271 79.4597H175.319V85.9024ZM167.705 85.9024H171.512V85.2191H168.583V82.8763H171.024V82.193H168.583V80.143H171.414V79.4597H167.705V85.9024ZM158.919 85.9024H159.7V82.8763H162.629V85.9024H163.41V79.4597H162.629V82.0953H159.7V79.4597H158.919V85.9024ZM152.574 85.9024H153.355V80.2406H155.308V79.5573H150.622V80.2406H152.574V85.9024Z" fill="#304265"></path></svg> 